<svg width="408" height="408" viewBox="0 0 408 408" fill="none" xmlns="http://www.w3.org/2000/svg">
<g filter="url(#filter0_d)">
<circle cx="204" cy="200" r="200" fill="#000"/>
<circle cx="204" cy="200" r="200" stroke="#000"/>
<circle cx="204" cy="200" r="181" fill="#000" stroke="white" stroke-width="8"/>
<path d="M143.52 174.86C143.52 148.4 124.98 135.8 93.66 135.8H59.28V260H79.98V215.72H95.1C123.54 215.72 143.52 203.84 143.52 174.86ZM121.74 174.86C121.74 193.76 110.94 199.88 95.28 199.88H79.98V151.46H95.1C111.12 151.46 121.74 157.94 121.74 174.86ZM251.09 197.9C251.09 158.84 235.07 133.28 203.93 133.28C172.79 133.28 156.77 159.74 156.77 198.08C156.77 237.14 172.79 262.34 203.93 262.34C235.07 262.34 251.09 236.24 251.09 197.9ZM229.67 197.9C229.67 229.94 222.29 246.14 203.93 246.14C186.11 246.14 178.19 230.12 178.19 198.08C178.19 165.86 185.57 149.66 203.93 149.66C222.29 149.66 229.67 165.86 229.67 197.9ZM299.079 151.64H350.559L352.899 135.8H278.199V260H353.979V244.16H299.079V204.74H344.079V189.08H299.079V151.64Z" fill="white"/>
</g>
<defs>
<filter id="filter0_d" x="0" y="0" width="408" height="408" filterUnits="userSpaceOnUse" color-interpolation-filters="sRGB">
<feFlood flood-opacity="0" result="BackgroundImageFix"/>
<feColorMatrix in="SourceAlpha" type="matrix" values="0 0 0 0 0 0 0 0 0 0 0 0 0 0 0 0 0 0 127 0"/>
<feOffset dy="4"/>
<feGaussianBlur stdDeviation="2"/>
<feColorMatrix type="matrix" values="0 0 0 0 0 0 0 0 0 0 0 0 0 0 0 0 0 0 0.25 0"/>
<feBlend mode="normal" in2="BackgroundImageFix" result="effect1_dropShadow"/>
<feBlend mode="normal" in="SourceGraphic" in2="effect1_dropShadow" result="shape"/>
</filter>
</defs>
</svg>
